HIERARCHY
ROOT Hips
{
	OFFSET	0.00	0.00	0.00
	CHANNELS 6 Xposition Yposition Zposition Zrotation Xrotation Yrotation
	JOINT LeftUpperLeg
	{
		OFFSET	 0.082078	-0.067517	-0.015996
		CHANNELS 3 Zrotation Xrotation Yrotation
		JOINT LeftLowerLeg
		{
			OFFSET	-0.000000	-0.443705	 0.002846
			CHANNELS 3 Zrotation Xrotation Yrotation
			JOINT LeftFoot
			{
				OFFSET	 0.000000	-0.444279	-0.029822
				CHANNELS 3 Zrotation Xrotation Yrotation
				JOINT LeftToes
				{
					OFFSET	-0.000000	-0.087287	 0.107106
					CHANNELS 3 Zrotation Xrotation Yrotation
					End Site
					{
						OFFSET	-0.000000	-0.087287	 0.107106
					}
				}
			}
		}
	}
	JOINT RightUpperLeg
	{
		OFFSET	-0.082078	-0.067517	-0.015996
		CHANNELS 3 Zrotation Xrotation Yrotation
		JOINT RightLowerLeg
		{
			OFFSET	 0.000000	-0.443705	 0.002862
			CHANNELS 3 Zrotation Xrotation Yrotation
			JOINT RightFoot
			{
				OFFSET	 0.000000	-0.444277	-0.029838
				CHANNELS 3 Zrotation Xrotation Yrotation
				JOINT RightToes
				{
					OFFSET	-0.000000	-0.087287	 0.107106
					CHANNELS 3 Zrotation Xrotation Yrotation
					End Site
					{
						OFFSET	-0.000000	-0.087287	 0.107106
					}
				}
			}
		}
	}
	JOINT Spine
	{
		OFFSET	 0.000000	 0.101816	 0.001315
		CHANNELS 3 Zrotation Xrotation Yrotation
		JOINT Chest
		{
			OFFSET	 0.000000	 0.100835	-0.010008
			CHANNELS 3 Zrotation Xrotation Yrotation
			JOINT UpperChest
			{
				OFFSET	 0.000000	 0.091000	-0.013734
				CHANNELS 3 Zrotation Xrotation Yrotation
				JOINT LeftShoulder
				{
					OFFSET	 0.045704	 0.109460	-0.026280
					CHANNELS 3 Zrotation Xrotation Yrotation
					JOINT LeftUpperArm
					{
						OFFSET	 0.105924	-0.005246	-0.022321
						CHANNELS 3 Zrotation Xrotation Yrotation
						JOINT LeftLowerArm
						{
							OFFSET	 0.278415	-0.000001	 0.000000
							CHANNELS 3 Zrotation Xrotation Yrotation
							JOINT LeftHand
							{
								OFFSET	 0.283288	-0.000000	 0.000000
								CHANNELS 3 Zrotation Xrotation Yrotation
								JOINT LeftIndexProximal
								{
									OFFSET	 0.091093	-0.005171	 0.022601
									CHANNELS 3 Zrotation Xrotation Yrotation
									JOINT LeftIndexIntermediate
									{
										OFFSET	 0.036764	 0.000000	 0.000000
										CHANNELS 3 Zrotation Xrotation Yrotation
										JOINT LeftIndexDistal
										{
											OFFSET	 0.028831	 0.000000	-0.000000
											CHANNELS 3 Zrotation Xrotation Yrotation
											End Site
											{
												OFFSET	 0.028831	 0.000000	-0.000000
											}
										}
									}
								}
								JOINT LeftMiddleProximal
								{
									OFFSET	 0.095334	-0.000000	 0.000000
									CHANNELS 3 Zrotation Xrotation Yrotation
									JOINT LeftMiddleIntermediate
									{
										OFFSET	 0.036982	 0.000000	 0.000000
										CHANNELS 3 Zrotation Xrotation Yrotation
										JOINT LeftMiddleDistal
										{
											OFFSET	 0.029509	-0.000000	 0.000000
											CHANNELS 3 Zrotation Xrotation Yrotation
											End Site
											{
												OFFSET	 0.029509	-0.000000	 0.000000
											}
										}
									}
								}
								JOINT LeftLittleProximal
								{
									OFFSET	 0.080778	-0.004887	-0.038061
									CHANNELS 3 Zrotation Xrotation Yrotation
									JOINT LeftLittleIntermediate
									{
										OFFSET	 0.036000	 0.000000	-0.000000
										CHANNELS 3 Zrotation Xrotation Yrotation
										JOINT LeftLittleDistal
										{
											OFFSET	 0.021142	 0.000000	-0.000000
											CHANNELS 3 Zrotation Xrotation Yrotation
											End Site
											{
												OFFSET	 0.021142	 0.000000	-0.000000
											}
										}
									}
								}
								JOINT LeftRingProximal
								{
									OFFSET	 0.091045	-0.000439	-0.018651
									CHANNELS 3 Zrotation Xrotation Yrotation
									JOINT LeftRingIntermediate
									{
										OFFSET	 0.031540	-0.000000	 0.000000
										CHANNELS 3 Zrotation Xrotation Yrotation
										JOINT LeftRingDistal
										{
											OFFSET	 0.029377	-0.000000	-0.000000
											CHANNELS 3 Zrotation Xrotation Yrotation
											End Site
											{
												OFFSET	 0.029377	-0.000000	-0.000000
											}
										}
									}
								}
								JOINT LeftThumbProximal
								{
									OFFSET	 0.024661	-0.015750	 0.026824
									CHANNELS 3 Zrotation Xrotation Yrotation
									JOINT LeftThumbIntermediate
									{
										OFFSET	 0.032298	-0.018647	 0.018647
										CHANNELS 3 Zrotation Xrotation Yrotation
										JOINT LeftThumbDistal
										{
											OFFSET	 0.026526	-0.015315	 0.015315
											CHANNELS 3 Zrotation Xrotation Yrotation
											End Site
											{
												OFFSET	 0.026526	-0.015315	 0.015315
											}
										}
									}
								}
							}
						}
					}
				}
				JOINT Neck
				{
					OFFSET	 0.000000	 0.166717	-0.025162
					CHANNELS 3 Zrotation Xrotation Yrotation
					JOINT Head
					{
						OFFSET	-0.000000	 0.096179	 0.016850
						CHANNELS 3 Zrotation Xrotation Yrotation
						End Site
						{
							OFFSET	-0.000000	 0.096179	 0.016850
						}
					}
				}
				JOINT RightShoulder
				{
					OFFSET	-0.045700	 0.109462	-0.026280
					CHANNELS 3 Zrotation Xrotation Yrotation
					JOINT RightUpperArm
					{
						OFFSET	-0.105929	-0.005248	-0.022321
						CHANNELS 3 Zrotation Xrotation Yrotation
						JOINT RightLowerArm
						{
							OFFSET	-0.278415	-0.000000	 0.000000
							CHANNELS 3 Zrotation Xrotation Yrotation
							JOINT RightHand
							{
								OFFSET	-0.283288	 0.000000	 0.000001
								CHANNELS 3 Zrotation Xrotation Yrotation
								JOINT RightIndexProximal
								{
									OFFSET	-0.091083	-0.005168	 0.022601
									CHANNELS 3 Zrotation Xrotation Yrotation
									JOINT RightIndexIntermediate
									{
										OFFSET	-0.036764	 0.000000	 0.000000
										CHANNELS 3 Zrotation Xrotation Yrotation
										JOINT RightIndexDistal
										{
											OFFSET	-0.028831	-0.000000	 0.000000
											CHANNELS 3 Zrotation Xrotation Yrotation
											End Site
											{
												OFFSET	-0.028831	-0.000000	 0.000000
											}
										}
									}
								}
								JOINT RightMiddleProximal
								{
									OFFSET	-0.095325	-0.000000	 0.000000
									CHANNELS 3 Zrotation Xrotation Yrotation
									JOINT RightMiddleIntermediate
									{
										OFFSET	-0.036982	 0.000000	-0.000000
										CHANNELS 3 Zrotation Xrotation Yrotation
										JOINT RightMiddleDistal
										{
											OFFSET	-0.029509	 0.000000	 0.000000
											CHANNELS 3 Zrotation Xrotation Yrotation
											End Site
											{
												OFFSET	-0.029509	 0.000000	 0.000000
											}
										}
									}
								}
								JOINT RightLittleProximal
								{
									OFFSET	-0.080767	-0.004885	-0.038060
									CHANNELS 3 Zrotation Xrotation Yrotation
									JOINT RightLittleIntermediate
									{
										OFFSET	-0.036000	 0.000000	 0.000001
										CHANNELS 3 Zrotation Xrotation Yrotation
										JOINT RightLittleDistal
										{
											OFFSET	-0.021142	 0.000000	 0.000000
											CHANNELS 3 Zrotation Xrotation Yrotation
											End Site
											{
												OFFSET	-0.021142	 0.000000	 0.000000
											}
										}
									}
								}
								JOINT RightRingProximal
								{
									OFFSET	-0.091036	-0.000439	-0.018651
									CHANNELS 3 Zrotation Xrotation Yrotation
									JOINT RightRingIntermediate
									{
										OFFSET	-0.031540	 0.000000	 0.000000
										CHANNELS 3 Zrotation Xrotation Yrotation
										JOINT RightRingDistal
										{
											OFFSET	-0.029377	-0.000000	-0.000000
											CHANNELS 3 Zrotation Xrotation Yrotation
											End Site
											{
												OFFSET	-0.029377	-0.000000	-0.000000
											}
										}
									}
								}
								JOINT RightThumbProximal
								{
									OFFSET	-0.024648	-0.015727	 0.026826
									CHANNELS 3 Zrotation Xrotation Yrotation
									JOINT RightThumbIntermediate
									{
										OFFSET	-0.032298	-0.018647	 0.018647
										CHANNELS 3 Zrotation Xrotation Yrotation
										JOINT RightThumbDistal
										{
											OFFSET	-0.026526	-0.015314	 0.015314
											CHANNELS 3 Zrotation Xrotation Yrotation
											End Site
											{
												OFFSET	-0.026526	-0.015314	 0.015314
											}
										}
									}
								}
							}
						}
					}
				}
			}
		}
	}
}
MOTION
Frames:    4
Frame Time: 0.01666667
-0.000000	 1.042749	 0.015543	 0.000081	-0.000000	-0.000002	-0.000082	-0.080468	 0.000002	 0.000000	 0.160688	 0.000000	 0.000001	-0.080221	-0.000000	-0.000000	 0.000000	-0.000000	-0.000082	-0.077198	 0.000002	-0.000000	 0.154253	-0.000002	 0.000001	-0.077056	-0.000000	 0.000000	 0.000002	-0.000000	-0.000081	-0.000000	 0.000002	-0.000000	 0.000000	 0.000000	 0.000000	 0.000000	 0.000000	 0.000016	-0.000005	-0.000000	 0.000190	 0.000005	-0.000000	-0.000206	-0.000007	-0.000000	 0.000000	 0.025855	-0.000005	 0.000002	 0.000009	 0.000000	 0.000000	-0.000012	-0.000002	 0.000007	 0.000000	-0.000002	-0.000003	 0.000002	 0.000005	 0.000000	-0.000002	-0.000002	 0.000002	 0.000000	 0.000000	 0.000002	 0.000003	 0.000002	-0.000002	 0.000003	 0.000002	 0.000003	-0.000007	 0.000003	-0.000002	 0.000003	 0.000003	 0.000005	-0.000003	-0.000003	-0.000002	 0.000007	 0.000002	 0.008684	-0.010341	-0.009230	 0.000548	 0.000012	 0.000567	-0.000073	 0.000000	-0.000068	-0.000000	-0.000000	-0.000000	 0.000000	 0.000000	 0.000000	-0.000005	-0.000002	-0.000000	 0.000005	 0.000002	 0.000000	 0.000000	-0.000007	-0.000202	-0.000000	 0.026655	 0.000207	-0.000002	 0.000002	-0.000000	-0.000000	-0.000005	 0.000002	-0.000003	 0.000003	-0.000002	 0.000003	 0.000002	-0.000005	-0.000000	-0.000002	 0.000002	-0.000005	 0.000007	-0.002025	-0.000002	 0.000009	-0.001592	 0.000002	-0.000002	 0.001588	 0.000000	-0.000010	 0.000000	 0.000002	 0.000003	-0.000003	-0.000005	-0.000003	 0.000003	 0.000009	 0.000007	-0.000002	-0.008962	-0.010661	 0.009507	 0.000754	 0.000003	 0.000752	-0.001219	 0.000003	-0.001228
-0.000000	 1.042749	 0.015543	 0.000081	-0.000000	-0.000002	-0.000082	-0.080468	 0.000002	 0.000000	 0.160688	 0.000000	 0.000001	-0.080221	-0.000000	-0.000000	 0.000000	-0.000000	-0.000082	-0.077198	 0.000002	-0.000000	 0.154253	-0.000002	 0.000001	-0.077056	-0.000000	 0.000000	 0.000002	-0.000000	-0.000081	-0.000000	 0.000002	-0.000000	 0.000000	 0.000000	 0.000000	 0.000000	 0.000000	 0.000016	-0.000005	-0.000000	 0.000190	 0.000005	-0.000000	-0.000206	-0.000007	-0.000000	 0.000000	 0.025855	-0.000005	 0.000002	 0.000009	 0.000000	 0.000000	-0.000012	-0.000002	 0.000007	 0.000000	-0.000002	-0.000003	 0.000002	 0.000005	 0.000000	-0.000002	-0.000002	 0.000002	 0.000000	 0.000000	 0.000002	 0.000003	 0.000002	-0.000002	 0.000003	 0.000002	 0.000003	-0.000007	 0.000003	-0.000002	 0.000003	 0.000003	 0.000005	-0.000003	-0.000003	-0.000002	 0.000007	 0.000002	 0.008684	-0.010341	-0.009230	 0.000548	 0.000012	 0.000567	-0.000073	 0.000000	-0.000068	-0.000000	-0.000000	-0.000000	 0.000000	 0.000000	 0.000000	-0.000005	-0.000002	-0.000000	 0.000005	 0.000002	 0.000000	 0.000000	-0.000007	-0.000202	-0.000000	 0.026655	 0.000207	-0.000002	 0.000002	-0.000000	-0.000000	-0.000005	 0.000002	-0.000003	 0.000003	-0.000002	 0.000003	 0.000002	-0.000005	-0.000000	-0.000002	 0.000002	-0.000005	 0.000007	-0.002025	-0.000002	 0.000009	-0.001592	 0.000002	-0.000002	 0.001588	 0.000000	-0.000010	 0.000000	 0.000002	 0.000003	-0.000003	-0.000005	-0.000003	 0.000003	 0.000009	 0.000007	-0.000002	-0.008962	-0.010661	 0.009507	 0.000754	 0.000003	 0.000752	-0.001219	 0.000003	-0.001228
 1460.000000	-1460.000000	-1460.000000	 0.000082	 0.000000	-0.000001	 80.193910	 45.909400	 163.266800	-48.961920	-16.701450	-140.317500	 111.268100	 42.996540	 120.192700	 180.000000	 0.000005	-180.000000	-80.194600	 45.907750	-163.265500	 48.964290	-16.702730	 140.321300	-111.270900	 42.995390	-120.188700	 180.000000	 0.000003	 180.000000	 123.089000	-42.701070	-108.395300	 129.024400	-41.764500	-102.660400	 129.024400	-41.764490	-102.660400	-127.755100	-46.647560	 97.353870	-147.489700	-18.281960	 140.155400	 116.311400	-34.138820	 152.620300	-118.321500	-39.293420	 118.273600	 22.433850	-45.180710	-70.457080	 143.474200	 0.046626	 0.013690	 143.474200	 0.046617	 0.013679	 25.608840	-42.324150	-65.866260	 143.474200	 0.046620	 0.016019	 143.474200	 0.046620	 0.016017	 22.345040	 45.150010	 70.534090	 143.474200	 0.046631	 0.015219	 143.474200	 0.046626	 0.015226	 25.524830	 42.298420	 65.939470	 143.474200	 0.046623	 0.015117	 143.474200	 0.046629	 0.015114	-87.626120	-60.262720	-165.841700	-50.131800	 16.813220	-147.088000	-50.132180	 16.813690	-147.088500	 92.753520	-38.600410	-139.648600	 111.337800	-42.967400	-120.090600	 127.756000	-46.646040	-97.354870	 147.489600	-18.282100	-140.155400	-116.311600	-34.138670	-152.620300	 118.322300	-39.293800	-118.272900	-22.435520	-45.180780	 70.456000	-143.474200	 0.048064	-0.017464	-143.474200	 0.048064	-0.017461	-25.610540	-42.323850	 65.865360	-143.474200	 0.048064	-0.015845	-143.474200	 0.048071	-0.017868	-22.343780	 45.149370	-70.536910	-143.474200	 0.047132	-0.017946	-143.474200	 0.048066	-0.016669	-25.524190	 42.296870	-65.941020	-143.474200	 0.048067	-0.014315	-143.474200	 0.048073	-0.014312	 87.628270	-60.263130	 165.843400	 50.131700	 16.813160	 147.089800	 50.132160	 16.811920	 147.087800
 1460.000000	-1460.000000	-1460.000000	 0.000082	 0.000000	-0.000001	 80.193910	 45.909400	 163.266800	-48.961920	-16.701450	-140.317500	 111.268100	 42.996540	 120.192700	 180.000000	 0.000005	-180.000000	-80.194600	 45.907750	-163.265500	 48.964290	-16.702730	 140.321300	-111.270900	 42.995390	-120.188700	 180.000000	 0.000003	 180.000000	 123.089000	-42.701070	-108.395300	 129.024400	-41.764500	-102.660400	 129.024400	-41.764490	-102.660400	-127.755100	-46.647560	 97.353870	-147.489700	-18.281960	 140.155400	 116.311400	-34.138820	 152.620300	-118.321500	-39.293420	 118.273600	 22.433850	-45.180710	-70.457080	 143.474200	 0.046626	 0.013690	 143.474200	 0.046617	 0.013679	 25.608840	-42.324150	-65.866260	 143.474200	 0.046620	 0.016019	 143.474200	 0.046620	 0.016017	 22.345040	 45.150010	 70.534090	 143.474200	 0.046631	 0.015219	 143.474200	 0.046626	 0.015226	 25.524830	 42.298420	 65.939470	 143.474200	 0.046623	 0.015117	 143.474200	 0.046629	 0.015114	-87.626120	-60.262720	-165.841700	-50.131800	 16.813220	-147.088000	-50.132180	 16.813690	-147.088500	 92.753520	-38.600410	-139.648600	 111.337800	-42.967400	-120.090600	 127.756000	-46.646040	-97.354870	 147.489600	-18.282100	-140.155400	-116.311600	-34.138670	-152.620300	 118.322300	-39.293800	-118.272900	-22.435520	-45.180780	 70.456000	-143.474200	 0.048064	-0.017464	-143.474200	 0.048064	-0.017461	-25.610540	-42.323850	 65.865360	-143.474200	 0.048064	-0.015845	-143.474200	 0.048071	-0.017868	-22.343780	 45.149370	-70.536910	-143.474200	 0.047132	-0.017946	-143.474200	 0.048066	-0.016669	-25.524190	 42.296870	-65.941020	-143.474200	 0.048067	-0.014315	-143.474200	 0.048073	-0.014312	 87.628270	-60.263130	 165.843400	 50.131700	 16.813160	 147.089800	 50.132160	 16.811920	 147.087800
